<svg xmlns="http://www.w3.org/2000/svg" xmlns:xlink="http://www.w3.org/1999/xlink" contentStyleType="text/css" data-diagram-type="CLASS" height="1341px" preserveAspectRatio="none" style="width:1784px;height:1341px;background:#FFFFFF;" version="1.1" viewBox="0 0 1784 1341" width="1784px" zoomAndPan="magnify"><title>DGIST ATM Simulator - Class Diagram</title><defs/><g><g class="title" data-source-line="1"><text fill="#000000" font-family="sans-serif" font-size="14" font-weight="bold" lengthAdjust="spacing" textLength="255.1582" x="757.4559" y="26.1533">DGIST ATM Simulator - Class Diagram</text></g><!--class Bank--><g class="entity" data-entity="Bank" data-source-line="4" data-uid="ent0002" id="entity_Bank"><rect fill="#F1F1F1" height="201.8359" rx="2.5" ry="2.5" style="stroke:#181818;stroke-width:0.5;" width="350.8574" x="1087.5" y="47.2295"/><ellipse cx="1242.7236" cy="63.2295" fill="#ADD1B2" rx="11" ry="11" style="stroke:#181818;stroke-width:1;"/><path d="M1242.2861,56.7451 Q1239.5518,56.7451 1238.4736,58.3701 Q1237.333,60.0889 1237.333,63.0107 Q1237.333,66.3076 1238.4893,68.0107 Q1239.4736,69.5107 1242.083,69.5107 Q1243.6611,69.5107 1244.5361,68.6826 Q1245.5205,67.7295 1245.6611,65.6045 Q1245.6611,65.3076 1245.4893,65.1357 Q1245.3643,64.9795 1245.1455,64.9639 Q1243.9268,64.9639 1243.7705,65.0889 Q1243.5986,65.2451 1243.5986,65.5107 Q1243.5674,66.9951 1242.9111,67.8076 Q1242.3018,68.6045 1242.2236,68.6045 Q1240.8955,68.6045 1240.1143,67.0107 Q1239.3643,65.4639 1239.3643,62.9795 Q1239.3643,60.3545 1240.3018,58.9014 Q1241.1299,57.6514 1242.4111,57.6514 Q1242.4111,57.6514 1242.7549,58.2764 Q1243.3799,58.9482 1243.5205,60.1045 Q1243.6299,60.6826 1245.0986,60.4639 Q1245.6299,60.3857 1245.5986,59.9639 Q1245.4268,58.5264 1244.708,57.7139 Q1243.8486,56.7451 1242.2861,56.7451 Z " fill="#000000"/><text fill="#000000" font-family="sans-serif" font-size="14" lengthAdjust="spacing" textLength="31.9102" x="1263.2236" y="69.7681">Bank</text><line style="stroke:#181818;stroke-width:0.5;" x1="1088.5" x2="1437.3574" y1="79.2295" y2="79.2295"/><text fill="#000000" font-family="sans-serif" font-size="14" lengthAdjust="spacing" textLength="122.165" x="1093.5" y="99.3828">-bankName_: string</text><text fill="#000000" font-family="sans-serif" font-size="14" lengthAdjust="spacing" textLength="98.8203" x="1093.5" y="118.6123">-bankID_: string</text><text fill="#000000" font-family="sans-serif" font-size="14" lengthAdjust="spacing" textLength="186.7715" x="1093.5" y="137.8418">-accounts_: vector&lt;Account*&gt;</text><text fill="#000000" font-family="sans-serif" font-size="14" lengthAdjust="spacing" textLength="144.7305" x="1093.5" y="157.0713">-cards_: vector&lt;Card*&gt;</text><text fill="#000000" font-family="sans-serif" font-size="14" lengthAdjust="spacing" textLength="124.4961" x="1093.5" y="176.3008">-adminCard_: Card*</text><line style="stroke:#181818;stroke-width:0.5;" x1="1088.5" x2="1437.3574" y1="183.377" y2="183.377"/><text fill="#000000" font-family="sans-serif" font-size="14" lengthAdjust="spacing" textLength="147.4785" x="1093.5" y="203.5303">+addAccount(Account*)</text><text fill="#000000" font-family="sans-serif" font-size="14" lengthAdjust="spacing" textLength="309.3125" x="1093.5" y="222.7598">+findAccountByAccountNumber(string) : Account*</text><text fill="#000000" font-family="sans-serif" font-size="14" lengthAdjust="spacing" textLength="338.8574" x="1093.5" y="241.9893">+verifyUserCredentials(string, string, Account*&amp;) : bool</text></g><!--class Account--><g class="entity" data-entity="Account" data-source-line="15" data-uid="ent0003" id="entity_Account"><rect fill="#F1F1F1" height="182.6064" rx="2.5" ry="2.5" style="stroke:#181818;stroke-width:0.5;" width="199.9131" x="109" y="947.2295"/><ellipse cx="179.4136" cy="963.2295" fill="#ADD1B2" rx="11" ry="11" style="stroke:#181818;stroke-width:1;"/><path d="M178.9761,956.7451 Q176.2417,956.7451 175.1636,958.3701 Q174.0229,960.0889 174.0229,963.0107 Q174.0229,966.3076 175.1792,968.0107 Q176.1636,969.5107 178.7729,969.5107 Q180.3511,969.5107 181.2261,968.6826 Q182.2104,967.7295 182.3511,965.6045 Q182.3511,965.3076 182.1792,965.1357 Q182.0542,964.9795 181.8354,964.9639 Q180.6167,964.9639 180.4604,965.0889 Q180.2886,965.2451 180.2886,965.5107 Q180.2573,966.9951 179.6011,967.8076 Q178.9917,968.6045 178.9136,968.6045 Q177.5854,968.6045 176.8042,967.0107 Q176.0542,965.4639 176.0542,962.9795 Q176.0542,960.3545 176.9917,958.9014 Q177.8198,957.6514 179.1011,957.6514 Q179.1011,957.6514 179.4448,958.2764 Q180.0698,958.9482 180.2104,960.1045 Q180.3198,960.6826 181.7886,960.4639 Q182.3198,960.3857 182.2886,959.9639 Q182.1167,958.5264 181.3979,957.7139 Q180.5386,956.7451 178.9761,956.7451 Z " fill="#000000"/><text fill="#000000" font-family="sans-serif" font-size="14" lengthAdjust="spacing" textLength="50.5859" x="199.9136" y="969.7681">Account</text><line style="stroke:#181818;stroke-width:0.5;" x1="110" x2="307.9131" y1="979.2295" y2="979.2295"/><text fill="#000000" font-family="sans-serif" font-size="14" lengthAdjust="spacing" textLength="129.9375" x="115" y="999.3828">-ownerName_: string</text><text fill="#000000" font-family="sans-serif" font-size="14" lengthAdjust="spacing" textLength="153.2891" x="115" y="1018.6123">-accountNumber_: string</text><text fill="#000000" font-family="sans-serif" font-size="14" lengthAdjust="spacing" textLength="126.0957" x="115" y="1037.8418">-balance_: long long</text><text fill="#000000" font-family="sans-serif" font-size="14" lengthAdjust="spacing" textLength="135.3994" x="115" y="1057.0713">-accountCard_: Card*</text><line style="stroke:#181818;stroke-width:0.5;" x1="110" x2="307.9131" y1="1064.1475" y2="1064.1475"/><text fill="#000000" font-family="sans-serif" font-size="14" lengthAdjust="spacing" textLength="119.4717" x="115" y="1084.3008">+deposit(long long)</text><text fill="#000000" font-family="sans-serif" font-size="14" lengthAdjust="spacing" textLength="167.7061" x="115" y="1103.5303">+withdraw(long long) : bool</text><text fill="#000000" font-family="sans-serif" font-size="14" lengthAdjust="spacing" textLength="187.9131" x="115" y="1122.7598">+checkPassword(string) : bool</text></g><!--class Card--><g class="entity" data-entity="Card" data-source-line="25" data-uid="ent0004" id="entity_Card"><rect fill="#F1F1F1" height="124.918" rx="2.5" ry="2.5" style="stroke:#181818;stroke-width:0.5;" width="135.7031" x="7" y="1209.2295"/><ellipse cx="55.4292" cy="1225.2295" fill="#ADD1B2" rx="11" ry="11" style="stroke:#181818;stroke-width:1;"/><path d="M54.9917,1218.7451 Q52.2573,1218.7451 51.1792,1220.3701 Q50.0386,1222.0889 50.0386,1225.0107 Q50.0386,1228.3076 51.1948,1230.0107 Q52.1792,1231.5107 54.7886,1231.5107 Q56.3667,1231.5107 57.2417,1230.6826 Q58.2261,1229.7295 58.3667,1227.6045 Q58.3667,1227.3076 58.1948,1227.1357 Q58.0698,1226.9795 57.8511,1226.9639 Q56.6323,1226.9639 56.4761,1227.0889 Q56.3042,1227.2451 56.3042,1227.5107 Q56.2729,1228.9951 55.6167,1229.8076 Q55.0073,1230.6045 54.9292,1230.6045 Q53.6011,1230.6045 52.8198,1229.0107 Q52.0698,1227.4639 52.0698,1224.9795 Q52.0698,1222.3545 53.0073,1220.9014 Q53.8354,1219.6514 55.1167,1219.6514 Q55.1167,1219.6514 55.4604,1220.2764 Q56.0854,1220.9482 56.2261,1222.1045 Q56.3354,1222.6826 57.8042,1222.4639 Q58.3354,1222.3857 58.3042,1221.9639 Q58.1323,1220.5264 57.4136,1219.7139 Q56.5542,1218.7451 54.9917,1218.7451 Z " fill="#000000"/><text fill="#000000" font-family="sans-serif" font-size="14" lengthAdjust="spacing" textLength="30.3447" x="75.9292" y="1231.7681">Card</text><line style="stroke:#181818;stroke-width:0.5;" x1="8" x2="141.7031" y1="1241.2295" y2="1241.2295"/><text fill="#000000" font-family="sans-serif" font-size="14" lengthAdjust="spacing" textLength="123.7031" x="13" y="1261.3828">-cardNumber: string</text><text fill="#000000" font-family="sans-serif" font-size="14" lengthAdjust="spacing" textLength="114.3789" x="13" y="1280.6123">-bankName: string</text><text fill="#000000" font-family="sans-serif" font-size="14" lengthAdjust="spacing" textLength="94.9238" x="13" y="1299.8418">-role: CardRole</text><line style="stroke:#181818;stroke-width:0.5;" x1="8" x2="141.7031" y1="1306.918" y2="1306.918"/><text fill="#000000" font-family="sans-serif" font-size="14" lengthAdjust="spacing" textLength="105.4307" x="13" y="1327.0713">+isAdmin() : bool</text></g><!--class ATM--><g class="entity" data-entity="ATM" data-source-line="32" data-uid="ent0005" id="entity_ATM"><rect fill="#F1F1F1" height="240.2949" rx="2.5" ry="2.5" style="stroke:#181818;stroke-width:0.5;" width="379.6641" x="1214" y="628.2295"/><ellipse cx="1384.8062" cy="644.2295" fill="#ADD1B2" rx="11" ry="11" style="stroke:#181818;stroke-width:1;"/><path d="M1384.3687,637.7451 Q1381.6343,637.7451 1380.5562,639.3701 Q1379.4155,641.0889 1379.4155,644.0107 Q1379.4155,647.3076 1380.5718,649.0107 Q1381.5562,650.5107 1384.1655,650.5107 Q1385.7437,650.5107 1386.6187,649.6826 Q1387.603,648.7295 1387.7437,646.6045 Q1387.7437,646.3076 1387.5718,646.1357 Q1387.4468,645.9795 1387.228,645.9639 Q1386.0093,645.9639 1385.853,646.0889 Q1385.6812,646.2451 1385.6812,646.5107 Q1385.6499,647.9951 1384.9937,648.8076 Q1384.3843,649.6045 1384.3062,649.6045 Q1382.978,649.6045 1382.1968,648.0107 Q1381.4468,646.4639 1381.4468,643.9795 Q1381.4468,641.3545 1382.3843,639.9014 Q1383.2124,638.6514 1384.4937,638.6514 Q1384.4937,638.6514 1384.8374,639.2764 Q1385.4624,639.9482 1385.603,641.1045 Q1385.7124,641.6826 1387.1812,641.4639 Q1387.7124,641.3857 1387.6812,640.9639 Q1387.5093,639.5264 1386.7905,638.7139 Q1385.9312,637.7451 1384.3687,637.7451 Z " fill="#000000"/><text fill="#000000" font-family="sans-serif" font-size="14" lengthAdjust="spacing" textLength="29.5518" x="1405.3062" y="650.7681">ATM</text><line style="stroke:#181818;stroke-width:0.5;" x1="1215" x2="1592.6641" y1="660.2295" y2="660.2295"/><text fill="#000000" font-family="sans-serif" font-size="14" lengthAdjust="spacing" textLength="137.71" x="1220" y="680.3828">-serialNumber_: string</text><text fill="#000000" font-family="sans-serif" font-size="14" lengthAdjust="spacing" textLength="136.165" x="1220" y="699.6123">-primaryBank_: Bank*</text><text fill="#000000" font-family="sans-serif" font-size="14" lengthAdjust="spacing" textLength="161.0957" x="1220" y="718.8418">-acceptedBanks_: Bank*[]</text><text fill="#000000" font-family="sans-serif" font-size="14" lengthAdjust="spacing" textLength="185.1855" x="1220" y="738.0713">-cashInventory_: CashDrawer</text><text fill="#000000" font-family="sans-serif" font-size="14" lengthAdjust="spacing" textLength="107.3652" x="1220" y="757.3008">-fees_: ATMFees</text><text fill="#000000" font-family="sans-serif" font-size="14" lengthAdjust="spacing" textLength="228.7783" x="1220" y="776.5303">-transactions_: vector&lt;Transaction*&gt;</text><line style="stroke:#181818;stroke-width:0.5;" x1="1215" x2="1592.6641" y1="783.6064" y2="783.6064"/><text fill="#000000" font-family="sans-serif" font-size="14" lengthAdjust="spacing" textLength="328.7607" x="1220" y="803.7598">+StartCustomerSession(const Card*, Account*, bool)</text><text fill="#000000" font-family="sans-serif" font-size="14" lengthAdjust="spacing" textLength="209.6992" x="1220" y="822.9893">+StartAdminSession(const Card*)</text><text fill="#000000" font-family="sans-serif" font-size="14" lengthAdjust="spacing" textLength="367.6641" x="1220" y="842.2188">+RequestDeposit(CashDrawer, long long, CashDrawer, int)</text><text fill="#000000" font-family="sans-serif" font-size="14" lengthAdjust="spacing" textLength="195.7129" x="1220" y="861.4482">+RequestWithdrawal(long long)</text></g><!--class Transaction--><g class="entity" data-entity="Transaction" data-source-line="45" data-uid="ent0006" id="entity_Transaction"><rect fill="#F1F1F1" height="221.0654" rx="2.5" ry="2.5" style="stroke:#181818;stroke-width:0.5;" width="208.8613" x="856.5" y="328.2295"/><ellipse cx="920.1084" cy="344.2295" fill="#ADD1B2" rx="11" ry="11" style="stroke:#181818;stroke-width:1;"/><path d="M919.6709,337.7451 Q916.9365,337.7451 915.8584,339.3701 Q914.7178,341.0889 914.7178,344.0107 Q914.7178,347.3076 915.874,349.0107 Q916.8584,350.5107 919.4678,350.5107 Q921.0459,350.5107 921.9209,349.6826 Q922.9053,348.7295 923.0459,346.6045 Q923.0459,346.3076 922.874,346.1357 Q922.749,345.9795 922.5303,345.9639 Q921.3115,345.9639 921.1553,346.0889 Q920.9834,346.2451 920.9834,346.5107 Q920.9521,347.9951 920.2959,348.8076 Q919.6865,349.6045 919.6084,349.6045 Q918.2803,349.6045 917.499,348.0107 Q916.749,346.4639 916.749,343.9795 Q916.749,341.3545 917.6865,339.9014 Q918.5146,338.6514 919.7959,338.6514 Q919.7959,338.6514 920.1396,339.2764 Q920.7646,339.9482 920.9053,341.1045 Q921.0146,341.6826 922.4834,341.4639 Q923.0146,341.3857 922.9834,340.9639 Q922.8115,339.5264 922.0928,338.7139 Q921.2334,337.7451 919.6709,337.7451 Z " fill="#000000"/><text fill="#000000" font-family="sans-serif" font-size="14" lengthAdjust="spacing" textLength="73.1445" x="940.6084" y="350.7681">Transaction</text><line style="stroke:#181818;stroke-width:0.5;" x1="857.5" x2="1064.3613" y1="360.2295" y2="360.2295"/><text fill="#000000" font-family="sans-serif" font-size="14" lengthAdjust="spacing" textLength="87.9512" x="862.5" y="380.3828">-id_: long long</text><text fill="#000000" font-family="sans-serif" font-size="14" lengthAdjust="spacing" textLength="113.5928" x="862.5" y="399.6123">-atmSerial_: string</text><text fill="#000000" font-family="sans-serif" font-size="14" lengthAdjust="spacing" textLength="131.4893" x="862.5" y="418.8418">-cardNumber_: string</text><text fill="#000000" font-family="sans-serif" font-size="14" lengthAdjust="spacing" textLength="165.7373" x="862.5" y="438.0713">-sourceBankName_: string</text><text fill="#000000" font-family="sans-serif" font-size="14" lengthAdjust="spacing" textLength="196.8613" x="862.5" y="457.3008">-sourceAccountNumber_: string</text><text fill="#000000" font-family="sans-serif" font-size="14" lengthAdjust="spacing" textLength="123.751" x="862.5" y="476.5303">-amount_: long long</text><text fill="#000000" font-family="sans-serif" font-size="14" lengthAdjust="spacing" textLength="96.5166" x="862.5" y="495.7598">-fee_: long long</text><text fill="#000000" font-family="sans-serif" font-size="14" lengthAdjust="spacing" textLength="81.71" x="862.5" y="514.9893">-note_: string</text><line style="stroke:#181818;stroke-width:0.5;" x1="857.5" x2="1064.3613" y1="522.0654" y2="522.0654"/><text fill="#000000" font-family="sans-serif" font-size="14" font-style="italic" lengthAdjust="spacing" textLength="151.334" x="862.5" y="542.2188">+getTypeName() : string</text></g><!--class DepositTransaction--><g class="entity" data-entity="DepositTransaction" data-source-line="57" data-uid="ent0007" id="entity_DepositTransaction"><rect fill="#F1F1F1" height="48" rx="2.5" ry="2.5" style="stroke:#181818;stroke-width:0.5;" width="152.6133" x="1025.5" y="724.2295"/><ellipse cx="1040.5" cy="740.2295" fill="#ADD1B2" rx="11" ry="11" style="stroke:#181818;stroke-width:1;"/><path d="M1040.0625,733.7451 Q1037.3281,733.7451 1036.25,735.3701 Q1035.1094,737.0889 1035.1094,740.0107 Q1035.1094,743.3076 1036.2656,745.0107 Q1037.25,746.5107 1039.8594,746.5107 Q1041.4375,746.5107 1042.3125,745.6826 Q1043.2969,744.7295 1043.4375,742.6045 Q1043.4375,742.3076 1043.2656,742.1357 Q1043.1406,741.9795 1042.9219,741.9639 Q1041.7031,741.9639 1041.5469,742.0889 Q1041.375,742.2451 1041.375,742.5107 Q1041.3438,743.9951 1040.6875,744.8076 Q1040.0781,745.6045 1040,745.6045 Q1038.6719,745.6045 1037.8906,744.0107 Q1037.1406,742.4639 1037.1406,739.9795 Q1037.1406,737.3545 1038.0781,735.9014 Q1038.9063,734.6514 1040.1875,734.6514 Q1040.1875,734.6514 1040.5313,735.2764 Q1041.1563,735.9482 1041.2969,737.1045 Q1041.4063,737.6826 1042.875,737.4639 Q1043.4063,737.3857 1043.375,736.9639 Q1043.2031,735.5264 1042.4844,734.7139 Q1041.625,733.7451 1040.0625,733.7451 Z " fill="#000000"/><text fill="#000000" font-family="sans-serif" font-size="14" lengthAdjust="spacing" textLength="120.6133" x="1054.5" y="746.7681">DepositTransaction</text><line style="stroke:#181818;stroke-width:0.5;" x1="1026.5" x2="1177.1133" y1="756.2295" y2="756.2295"/><line style="stroke:#181818;stroke-width:0.5;" x1="1026.5" x2="1177.1133" y1="764.2295" y2="764.2295"/></g><!--class WithdrawalTransaction--><g class="entity" data-entity="WithdrawalTransaction" data-source-line="58" data-uid="ent0008" id="entity_WithdrawalTransaction"><rect fill="#F1F1F1" height="48" rx="2.5" ry="2.5" style="stroke:#181818;stroke-width:0.5;" width="174.3857" x="334" y="724.2295"/><ellipse cx="349" cy="740.2295" fill="#ADD1B2" rx="11" ry="11" style="stroke:#181818;stroke-width:1;"/><path d="M348.5625,733.7451 Q345.8281,733.7451 344.75,735.3701 Q343.6094,737.0889 343.6094,740.0107 Q343.6094,743.3076 344.7656,745.0107 Q345.75,746.5107 348.3594,746.5107 Q349.9375,746.5107 350.8125,745.6826 Q351.7969,744.7295 351.9375,742.6045 Q351.9375,742.3076 351.7656,742.1357 Q351.6406,741.9795 351.4219,741.9639 Q350.2031,741.9639 350.0469,742.0889 Q349.875,742.2451 349.875,742.5107 Q349.8438,743.9951 349.1875,744.8076 Q348.5781,745.6045 348.5,745.6045 Q347.1719,745.6045 346.3906,744.0107 Q345.6406,742.4639 345.6406,739.9795 Q345.6406,737.3545 346.5781,735.9014 Q347.4063,734.6514 348.6875,734.6514 Q348.6875,734.6514 349.0313,735.2764 Q349.6563,735.9482 349.7969,737.1045 Q349.9063,737.6826 351.375,737.4639 Q351.9063,737.3857 351.875,736.9639 Q351.7031,735.5264 350.9844,734.7139 Q350.125,733.7451 348.5625,733.7451 Z " fill="#000000"/><text fill="#000000" font-family="sans-serif" font-size="14" lengthAdjust="spacing" textLength="142.3857" x="363" y="746.7681">WithdrawalTransaction</text><line style="stroke:#181818;stroke-width:0.5;" x1="335" x2="507.3857" y1="756.2295" y2="756.2295"/><line style="stroke:#181818;stroke-width:0.5;" x1="335" x2="507.3857" y1="764.2295" y2="764.2295"/></g><!--class AccountTransferTransaction--><g class="entity" data-entity="AccountTransferTransaction" data-source-line="59" data-uid="ent0009" id="entity_AccountTransferTransaction"><rect fill="#F1F1F1" height="86.459" rx="2.5" ry="2.5" style="stroke:#181818;stroke-width:0.5;" width="207.8545" x="782" y="705.2295"/><ellipse cx="797" cy="721.2295" fill="#ADD1B2" rx="11" ry="11" style="stroke:#181818;stroke-width:1;"/><path d="M796.5625,714.7451 Q793.8281,714.7451 792.75,716.3701 Q791.6094,718.0889 791.6094,721.0107 Q791.6094,724.3076 792.7656,726.0107 Q793.75,727.5107 796.3594,727.5107 Q797.9375,727.5107 798.8125,726.6826 Q799.7969,725.7295 799.9375,723.6045 Q799.9375,723.3076 799.7656,723.1357 Q799.6406,722.9795 799.4219,722.9639 Q798.2031,722.9639 798.0469,723.0889 Q797.875,723.2451 797.875,723.5107 Q797.8438,724.9951 797.1875,725.8076 Q796.5781,726.6045 796.5,726.6045 Q795.1719,726.6045 794.3906,725.0107 Q793.6406,723.4639 793.6406,720.9795 Q793.6406,718.3545 794.5781,716.9014 Q795.4063,715.6514 796.6875,715.6514 Q796.6875,715.6514 797.0313,716.2764 Q797.6563,716.9482 797.7969,718.1045 Q797.9063,718.6826 799.375,718.4639 Q799.9063,718.3857 799.875,717.9639 Q799.7031,716.5264 798.9844,715.7139 Q798.125,714.7451 796.5625,714.7451 Z " fill="#000000"/><text fill="#000000" font-family="sans-serif" font-size="14" lengthAdjust="spacing" textLength="175.8545" x="811" y="727.7681">AccountTransferTransaction</text><line style="stroke:#181818;stroke-width:0.5;" x1="783" x2="988.8545" y1="737.2295" y2="737.2295"/><text fill="#000000" font-family="sans-serif" font-size="14" lengthAdjust="spacing" textLength="159.5166" x="788" y="757.3828">-targetBankName_: string</text><text fill="#000000" font-family="sans-serif" font-size="14" lengthAdjust="spacing" textLength="190.6406" x="788" y="776.6123">-targetAccountNumber_: string</text><line style="stroke:#181818;stroke-width:0.5;" x1="783" x2="988.8545" y1="783.6885" y2="783.6885"/></g><!--class CashTransferTransaction--><g class="entity" data-entity="CashTransferTransaction" data-source-line="63" data-uid="ent0010" id="entity_CashTransferTransaction"><rect fill="#F1F1F1" height="86.459" rx="2.5" ry="2.5" style="stroke:#181818;stroke-width:0.5;" width="202.6406" x="543.5" y="705.2295"/><ellipse cx="564.2103" cy="721.2295" fill="#ADD1B2" rx="11" ry="11" style="stroke:#181818;stroke-width:1;"/><path d="M563.7728,714.7451 Q561.0384,714.7451 559.9603,716.3701 Q558.8196,718.0889 558.8196,721.0107 Q558.8196,724.3076 559.9759,726.0107 Q560.9603,727.5107 563.5696,727.5107 Q565.1478,727.5107 566.0228,726.6826 Q567.0071,725.7295 567.1478,723.6045 Q567.1478,723.3076 566.9759,723.1357 Q566.8509,722.9795 566.6321,722.9639 Q565.4134,722.9639 565.2571,723.0889 Q565.0853,723.2451 565.0853,723.5107 Q565.054,724.9951 564.3978,725.8076 Q563.7884,726.6045 563.7103,726.6045 Q562.3821,726.6045 561.6009,725.0107 Q560.8509,723.4639 560.8509,720.9795 Q560.8509,718.3545 561.7884,716.9014 Q562.6165,715.6514 563.8978,715.6514 Q563.8978,715.6514 564.2415,716.2764 Q564.8665,716.9482 565.0071,718.1045 Q565.1165,718.6826 566.5853,718.4639 Q567.1165,718.3857 567.0853,717.9639 Q566.9134,716.5264 566.1946,715.7139 Q565.3353,714.7451 563.7728,714.7451 Z " fill="#000000"/><text fill="#000000" font-family="sans-serif" font-size="14" lengthAdjust="spacing" textLength="157.9512" x="579.4792" y="727.7681">CashTransferTransaction</text><line style="stroke:#181818;stroke-width:0.5;" x1="544.5" x2="745.1406" y1="737.2295" y2="737.2295"/><text fill="#000000" font-family="sans-serif" font-size="14" lengthAdjust="spacing" textLength="159.5166" x="549.5" y="757.3828">-targetBankName_: string</text><text fill="#000000" font-family="sans-serif" font-size="14" lengthAdjust="spacing" textLength="190.6406" x="549.5" y="776.6123">-targetAccountNumber_: string</text><line style="stroke:#181818;stroke-width:0.5;" x1="544.5" x2="745.1406" y1="783.6885" y2="783.6885"/></g><!--reverse link Transaction to DepositTransaction--><g class="link" data-entity-1="Transaction" data-entity-2="DepositTransaction" data-source-line="68" data-uid="lnk11" id="link_Transaction_DepositTransaction"><path codeLine="68" d="M1018.8118,565.8017 C1047.9118,629.2717 1074.53,687.3195 1091.42,724.1595" fill="none" id="Transaction-backto-DepositTransaction" style="stroke:#181818;stroke-width:1;"/><polygon fill="none" points="1011.31,549.4395,1013.3577,568.3023,1024.2659,563.3011,1011.31,549.4395" style="stroke:#181818;stroke-width:1;"/></g><!--reverse link Transaction to WithdrawalTransaction--><g class="link" data-entity-1="Transaction" data-entity-2="WithdrawalTransaction" data-source-line="69" data-uid="lnk12" id="link_Transaction_WithdrawalTransaction"><path codeLine="69" d="M839.2468,476.2606 C746.7068,506.8006 628.04,554.0895 526,628.2295 C488.78,655.2795 455.44,697.6795 436.75,723.8895" fill="none" id="Transaction-backto-WithdrawalTransaction" style="stroke:#181818;stroke-width:1;"/><polygon fill="none" points="856.34,470.6195,837.3664,470.5628,841.1271,481.9583,856.34,470.6195" style="stroke:#181818;stroke-width:1;"/></g><!--reverse link Transaction to AccountTransferTransaction--><g class="link" data-entity-1="Transaction" data-entity-2="AccountTransferTransaction" data-source-line="70" data-uid="lnk13" id="link_Transaction_AccountTransferTransaction"><path codeLine="70" d="M929.9769,566.9274 C916.8569,620.7474 906.07,664.9295 896.32,704.8995" fill="none" id="Transaction-backto-AccountTransferTransaction" style="stroke:#181818;stroke-width:1;"/><polygon fill="none" points="934.24,549.4395,924.1476,565.5063,935.8062,568.3484,934.24,549.4395" style="stroke:#181818;stroke-width:1;"/></g><!--reverse link Transaction to CashTransferTransaction--><g class="link" data-entity-1="Transaction" data-entity-2="CashTransferTransaction" data-source-line="71" data-uid="lnk14" id="link_Transaction_CashTransferTransaction"><path codeLine="71" d="M843.2907,551.5296 C813.3507,580.1596 793.78,599.0995 764,628.2295 C738.1,653.5595 709.37,682.2795 686.63,705.1495" fill="none" id="Transaction-backto-CashTransferTransaction" style="stroke:#181818;stroke-width:1;"/><polygon fill="none" points="856.3,539.0895,839.1439,547.1932,847.4374,555.8661,856.3,539.0895" style="stroke:#181818;stroke-width:1;"/></g><!--reverse link Bank to Account--><g class="link" data-entity-1="Bank" data-entity-2="Account" data-source-line="73" data-uid="lnk15" id="link_Bank_Account"><path codeLine="73" d="M1399.3433,257.4519 C1425.5633,281.5619 1442.77,300.3495 1464,328.2295 C1614.75,526.2195 1777.07,682.0095 1612,868.2295 C1525.51,965.7895 615.37,1018.1995 309,1033.1695" fill="none" id="Bank-backto-Account" style="stroke:#181818;stroke-width:1;"/><polygon fill="none" points="1390.51,249.3295,1392.2192,256.3351,1399.3433,257.4519,1397.6341,250.4463,1390.51,249.3295" style="stroke:#181818;stroke-width:1;"/><text fill="#000000" font-family="sans-serif" font-size="13" lengthAdjust="spacing" textLength="30.3481" x="1653" y="595.229">owns</text><text fill="#000000" font-family="sans-serif" font-size="13" lengthAdjust="spacing" textLength="7.23" x="1392.2426" y="272.0711">1</text><text fill="#000000" font-family="sans-serif" font-size="13" lengthAdjust="spacing" textLength="5.0591" x="316.8532" y="1048.4419">*</text></g><!--link Account to Bank--><g class="link" data-entity-1="Account" data-entity-2="Bank" data-source-line="82" data-uid="lnk22" id="link_Account_Bank"><path codeLine="82" d="M170.31,947.0495 C131.28,839.6795 90.48,664.6695 196,579.2295 C465.89,360.7095 861.38,240.6695 1087.35,186.1295" fill="none" id="Account-Bank" style="stroke:#181818;stroke-width:1;"/><text fill="#000000" font-family="sans-serif" font-size="13" lengthAdjust="spacing" textLength="60.709" x="197" y="595.229">belongs-to</text><text fill="#000000" font-family="sans-serif" font-size="13" lengthAdjust="spacing" textLength="7.23" x="159.6979" y="936.4935">1</text><text fill="#000000" font-family="sans-serif" font-size="13" lengthAdjust="spacing" textLength="7.23" x="1072.2407" y="185.4843">1</text></g><!--reverse link Bank to Card--><g class="link" data-entity-1="Bank" data-entity-2="Card" data-source-line="74" data-uid="lnk16" id="link_Bank_Card"><path codeLine="74" d="M1075.3519,155.0941 C738.3219,170.1241 46,226.2895 46,437.7295 C46,437.7295 46,437.7295 46,1039.7295 C46,1097.5295 55.05,1162.8295 63.04,1209.2195" fill="none" id="Bank-backto-Card" style="stroke:#181818;stroke-width:1;"/><polygon fill="none" points="1087.34,154.5595,1081.1678,150.8308,1075.3519,155.0941,1081.5242,158.8228,1087.34,154.5595" style="stroke:#181818;stroke-width:1;"/><text fill="#000000" font-family="sans-serif" font-size="13" lengthAdjust="spacing" textLength="20.96" x="47" y="754.729">has</text><text fill="#000000" font-family="sans-serif" font-size="13" lengthAdjust="spacing" textLength="7.23" x="1072.2303" y="152.4838">1</text><text fill="#000000" font-family="sans-serif" font-size="13" lengthAdjust="spacing" textLength="5.0591" x="56.2101" y="1198.1809">*</text></g><!--reverse link Bank to Transaction--><g class="link" data-entity-1="Bank" data-entity-2="Transaction" data-source-line="75" data-uid="lnk17" id="link_Bank_Transaction"><path codeLine="75" d="M1149.5445,257.6102 C1119.5645,286.2602 1095.56,309.1795 1065.59,337.8095" fill="none" id="Bank-backto-Transaction" style="stroke:#181818;stroke-width:1;"/><polygon fill="none" points="1158.22,249.3195,1151.1187,250.573,1149.5445,257.6102,1156.6458,256.3567,1158.22,249.3195" style="stroke:#181818;stroke-width:1;"/><text fill="#000000" font-family="sans-serif" font-size="13" lengthAdjust="spacing" textLength="23.8481" x="1122" y="295.229">logs</text><text fill="#000000" font-family="sans-serif" font-size="13" lengthAdjust="spacing" textLength="7.23" x="1143.6197" y="272.0604">1</text><text fill="#000000" font-family="sans-serif" font-size="13" lengthAdjust="spacing" textLength="5.0591" x="1073.4617" y="327.8025">*</text></g><!--link ATM to Bank--><g class="link" data-entity-1="ATM" data-entity-2="Bank" data-source-line="77" data-uid="lnk18" id="link_ATM_Bank"><path codeLine="77" d="M1344.48,628.0695 C1333.6,602.5495 1323.38,575.3895 1316,549.2295 C1287.85,449.4495 1274.53,331.3495 1268.31,249.4595" fill="none" id="ATM-Bank" style="stroke:#181818;stroke-width:1;"/><text fill="#000000" font-family="sans-serif" font-size="13" lengthAdjust="spacing" textLength="43.3354" x="1317" y="445.229">primary</text><text fill="#000000" font-family="sans-serif" font-size="13" lengthAdjust="spacing" textLength="7.23" x="1333.2649" y="617.4435">1</text><text fill="#000000" font-family="sans-serif" font-size="13" lengthAdjust="spacing" textLength="7.23" x="1261.4504" y="272.2103">1</text></g><!--link ATM to Bank--><g class="link" data-entity-1="ATM" data-entity-2="Bank" data-source-line="78" data-uid="lnk19" id="link_ATM_Bank"><path codeLine="78" d="M1406.19,628.0995 C1404.59,542.7695 1395.86,426.1295 1365,328.2295 C1356.56,301.4495 1343.7,274.2595 1329.93,249.4395" fill="none" id="ATM-Bank-1" style="stroke:#181818;stroke-width:1;"/><text fill="#000000" font-family="sans-serif" font-size="13" lengthAdjust="spacing" textLength="52.7617" x="1403" y="445.229">accepted</text><text fill="#000000" font-family="sans-serif" font-size="13" lengthAdjust="spacing" textLength="7.23" x="1399.121" y="617.4755">1</text><text fill="#000000" font-family="sans-serif" font-size="13" lengthAdjust="spacing" textLength="19.5127" x="1314.9911" y="272.1888">0..*</text></g><!--reverse link ATM to Transaction--><g class="link" data-entity-1="ATM" data-entity-2="Transaction" data-source-line="79" data-uid="lnk20" id="link_ATM_Transaction"><path codeLine="79" d="M1203.1884,631.5502 C1197.1684,628.5802 1201.94,630.9995 1196,628.2295 C1161.22,611.9795 1147.17,619.1795 1115,598.2295 C1093.94,584.5195 1073.58,567.4395 1054.93,549.6295" fill="none" id="ATM-backto-Transaction" style="stroke:#181818;stroke-width:1;"/><polygon fill="none" points="1213.95,636.8595,1210.339,630.6177,1203.1884,631.5502,1206.7995,637.792,1213.95,636.8595" style="stroke:#181818;stroke-width:1;"/><text fill="#000000" font-family="sans-serif" font-size="13" lengthAdjust="spacing" textLength="43.3481" x="1116" y="595.229">records</text><text fill="#000000" font-family="sans-serif" font-size="13" lengthAdjust="spacing" textLength="7.23" x="1198.7965" y="629.8138">1</text><text fill="#000000" font-family="sans-serif" font-size="13" lengthAdjust="spacing" textLength="5.0591" x="1055.7936" y="572.3034">*</text></g><!--link Transaction to ATM--><g class="link" data-entity-1="Transaction" data-entity-2="ATM" data-source-line="83" data-uid="lnk23" id="link_Transaction_ATM"><path codeLine="83" d="M1065.7,511.4195 C1097.32,533.1495 1132.11,557.1095 1164,579.2295 C1186.78,595.0295 1205.8107,608.2743 1229.4107,624.7543" fill="none" id="Transaction-to-ATM" style="stroke:#181818;stroke-width:1;"/><polygon fill="#181818" points="1234.33,628.1895,1229.2412,619.7572,1230.2306,625.3268,1224.6609,626.3163,1234.33,628.1895" style="stroke:#181818;stroke-width:1;"/><text fill="#000000" font-family="sans-serif" font-size="13" lengthAdjust="spacing" textLength="61.4199" x="1191" y="595.229">occured-at</text><text fill="#000000" font-family="sans-serif" font-size="13" lengthAdjust="spacing" textLength="5.0591" x="1073.2445" y="513.9602">*</text><text fill="#000000" font-family="sans-serif" font-size="13" lengthAdjust="spacing" textLength="7.23" x="1215.7142" y="617.5716">1</text></g><!--link Account to Card--><g class="link" data-entity-1="Account" data-entity-2="Card" data-source-line="81" data-uid="lnk21" id="link_Account_Card"><path codeLine="81" d="M156.42,1130.3595 C141.1,1156.7795 124.72,1185.0195 110.7,1209.1895" fill="none" id="Account-Card" style="stroke:#181818;stroke-width:1;"/><text fill="#000000" font-family="sans-serif" font-size="13" lengthAdjust="spacing" textLength="63.5845" x="139" y="1176.229">linked-card</text><text fill="#000000" font-family="sans-serif" font-size="13" lengthAdjust="spacing" textLength="7.23" x="145.3133" y="1152.7582">1</text><text fill="#000000" font-family="sans-serif" font-size="13" lengthAdjust="spacing" textLength="7.23" x="107.6565" y="1198.5882">1</text></g><!--link Transaction to Account--><g class="link" data-entity-1="Transaction" data-entity-2="Account" data-source-line="84" data-uid="lnk24" id="link_Transaction_Account"><path codeLine="84" d="M856.42,451.3295 C672.92,474.0195 304.91,530.7795 226,628.2295 C153.91,717.2595 164.5593,850.4029 183.2893,941.3129" fill="none" id="Transaction-to-Account" style="stroke:#181818;stroke-width:1;"/><polygon fill="#181818" points="184.5,947.1895,186.6016,937.5675,183.4911,942.2923,178.7662,939.1818,184.5,947.1895" style="stroke:#181818;stroke-width:1;"/><text fill="#000000" font-family="sans-serif" font-size="13" lengthAdjust="spacing" textLength="88.8799" x="227" y="754.729">source-account</text><text fill="#000000" font-family="sans-serif" font-size="13" lengthAdjust="spacing" textLength="5.0591" x="843.5636" y="449.6591">*</text><text fill="#000000" font-family="sans-serif" font-size="13" lengthAdjust="spacing" textLength="7.23" x="175.0204" y="936.3348">1</text></g><!--link AccountTransferTransaction to Account--><g class="link" data-entity-1="AccountTransferTransaction" data-entity-2="Account" data-source-line="85" data-uid="lnk25" id="link_AccountTransferTransaction_Account"><path codeLine="85" d="M852.02,791.3595 C829.47,816.8395 797.86,848.1795 764,868.2295 C618.37,954.4795 430.7595,999.426 314.9295,1020.896" fill="none" id="AccountTransferTransaction-to-Account" style="stroke:#181818;stroke-width:1;"/><polygon fill="#181818" points="309.03,1021.9895,318.6083,1024.2822,313.9463,1021.0782,317.1503,1016.4162,309.03,1021.9895" style="stroke:#181818;stroke-width:1;"/><text fill="#000000" font-family="sans-serif" font-size="13" lengthAdjust="spacing" textLength="83.1035" x="696" y="914.229">target-account</text><text fill="#000000" font-family="sans-serif" font-size="13" lengthAdjust="spacing" textLength="5.0591" x="841.2223" y="814.6192">*</text><text fill="#000000" font-family="sans-serif" font-size="13" lengthAdjust="spacing" textLength="7.23" x="316.9686" y="1018.1044">1</text></g><!--SRC=[jLLBRzim3BxxLmWv37cvwAv1KI0FRCXXnT1as64O1aLc4Y6sb4boWwphVn_ri2tFpcwxsFBtaIBvaP8DDpcGrSVrPalcsqzamuiofqOgaf9bJhKcAquFYXQ9Fd5nfhWYpE9pOnJVbGRMJ8eD_mNaFaaSGnPKdCXhGd2B7IwVQ04_PaIZlJZKw7hLnYXZiXH68_e231Duc7ja_EXuHbKMaKly30pD2YxiDx8EHdI2Q1Os65ORZHonvw9Y5jUmU2gB7QYXJsT4PgHoSHuleFZ- -aM3MYh8G1XESnsCfwHwLoxlhFzEoZnvgmG9LD14NWIehYWqJkLllN8gcBNFfJYuH-pIgJs3izJS36jhN_c5csEcw2N2grGjpOx0JfyntujKMQH5knOR9HHYM-BJxNJNbjS2bSp1f_YCAnUFwxdjtB17Bnn47m8rHx7xD3ahNb1rjRE6X7sDAqtWR22pYAwORzz3mlgu5Y_OGQckJZ5zNA4We1oz1x0U6Fq3hXna51MQCiEbY8Plsw1k1YTaOwWoor8RMO3QWDP83V5WQEFRqep7rDKwQhoS23qktkGPVfQWpIfqjCbusip2bCGm5wRb-ZLqdURnFDHQHxK4pNdM7JHJR5mdsZre1g2DQrag1elUi- -v-UrXfuLbEYbWSpgOaAQr-uGSm6olPx1XtLnvYhpI7QwmohUcy21fL7yW6i6wNCZR4NjGNV6mevX3V-cUkr7wMts-zF6_R9_4kptyJjC-1Jes_M9qp6xhqhMzKM6IkF_6uFs0IBGQZ0VrlJcpTwRkykukcf4ZxU7Yi7Pk3Zf9xBrYRQm9lfpFhBf9MkpztTsuDgYkbDgYFuO2XXUd3HFIZaA5J7CkJf2bzjpqMOLuEx0JhbCZM-BPY6dww2nj9gWAOoN-aL9gRXlM4lg3buP_HlAFIUxtz-DL-_y1]--></g></svg>